# xmcd
# 
# Track frame offsets:
#     150
#     20420
#     62370
#     85370
# 
# Disc length: 1500
# 
# Revision: 0
# Processed by: cddbd v1.5.2PL0 Copyright (c) Steve Scherf et al.
# Submitted via: BonkEnc v1.0.8
# 
DISCID=2605da04
DTITLE=Kim English - I Know A Place
DYEAR=1995
DGENRE=Club
TTITLE0=I Know A place (Radio Edit)
TTITLE1=I Know A Place (E-Smoove Remix)
TTITLE2=Nite Life (Nite Mix)
TTITLE3=Time For Love (Morales Mix)
EXTD=
EXTT0=
EXTT1=
EXTT2=
EXTT3=
PLAYORDER=
